<svg xmlns="http://www.w3.org/2000/svg" viewBox="0 0 240 280"><defs><style>.cls-1{fill:#ffffff;}</style></defs><title>Seven Logo</title><g id="Layer_2" data-name="Layer 2"><path class="cls-1" d="M49.58,208.44c.74,2.25,2.54,3.73,6.87,3.73,4,0,5.22-1.24,5.22-2.92s-1.2-2.8-6.69-3.74c-9-1.54-10.69-4.48-10.69-8,0-5.2,5-7.86,11.17-7.86,8.95,0,11.37,4.6,11.67,7.63H60.8c-.37-1.29-1.24-3-5.54-3-3,0-4.54,1-4.54,2.64,0,1.51,1.08,2.26,6,3.14,9.9,1.78,11.45,4.77,11.45,8.55,0,4.52-3.55,8.17-12.29,8.17-8.15,0-11.82-3.64-12.61-8.34Z"/><path class="cls-1" d="M97.09,205.26H82.55v5.93H98.72L98,216.25H76.22V190.19H97.88v5.07H82.55v4.93H97.09Z"/><path class="cls-1" d="M114.32,216.25,103.7,190.19h7l4.59,12.41c1.73,4.69,2.47,7.22,2.92,8.88h.07c.41-1.51.77-2.61,3.22-9.35l4.43-11.94h6.77l-10.81,26.06Z"/><path class="cls-1" d="M159.62,205.26H145.08v5.93h16.17l-.73,5.06H138.75V190.19h21.66v5.07H145.08v4.93h14.54Z"/><path class="cls-1" d="M168.91,216.25V190.19h7.49c7.32,11.18,10.24,15.24,11.88,18.34h.07c-.26-2.74-.22-7.61-.22-11.9v-6.44h5.8v26.06h-7c-2.46-3.88-10.8-16.83-12.35-19.81h-.07c.21,3.22.21,6.92.21,11.55v8.26Z"/><path class="cls-1" d="M59.43,242.27l-1.7,4.78H55.27l5.89-16.67h3.06l6.14,16.67H67.73L66,242.27Zm5.94-2.09c-1.52-4.22-2.37-6.53-2.74-7.85h0c-.41,1.46-1.36,4.24-2.58,7.85Z"/><path class="cls-1" d="M76.12,247.05l-4.43-16.67h2.62c1.35,5.88,2.94,12.11,3.23,14h0c.48-2.33,2.64-9.8,3.71-14h2.35c1,3.63,3.14,11.71,3.55,13.91h0c.54-3,2.74-10.64,3.59-13.91h2.44l-4.8,16.67H85.79c-1-3.8-3-11.27-3.45-13.43h0c-.52,2.58-2.54,9.69-3.58,13.43Z"/><path class="cls-1" d="M108.13,239.38H99.9V245h9l-.31,2.09H97.48V230.38h11v2.1H99.9v4.8h8.23Z"/><path class="cls-1" d="M115.06,242.37c.44,1.93,1.77,2.95,4.1,2.95s3.46-1.13,3.46-2.64-.82-2.48-4.07-3.27c-4-1-5.36-2.37-5.36-4.7,0-2.56,1.89-4.57,5.66-4.57,4.05,0,5.71,2.31,5.94,4.55h-2.51c-.28-1.4-1.14-2.59-3.52-2.59-1.92,0-3,.85-3,2.36s.9,2.08,3.77,2.77c4.78,1.16,5.66,3,5.66,5.18,0,2.75-2.05,4.86-6.19,4.86s-6.09-2.25-6.44-4.9Z"/><path class="cls-1" d="M144.86,238.63c0,4.6-2.62,8.66-7.9,8.66-5,0-7.7-3.79-7.7-8.57s2.83-8.58,7.9-8.58C141.89,230.14,144.86,233.65,144.86,238.63Zm-13,0c0,3.53,1.76,6.56,5.23,6.56,3.74,0,5.2-3.09,5.2-6.54s-1.66-6.44-5.21-6.44S131.84,235.15,131.84,238.65Z"/><path class="cls-1" d="M164.14,240.11c0-3.05,0-6.2.1-8h-.09c-.73,2.83-3.23,9.68-5.08,14.92h-2.19c-1.4-4.32-4-12-4.74-15h-.08c.13,1.93.19,5.59.19,8.44v6.52h-2.31V230.38h3.69c1.78,5,3.93,11.47,4.49,13.66h0c.39-1.72,3-8.76,4.81-13.66h3.58v16.67h-2.41Z"/><path class="cls-1" d="M183.29,239.38h-8.23V245h9.05l-.31,2.09H172.64V230.38h11v2.1h-8.62v4.8h8.23Z"/><path class="cls-1" d="M198.82,174.17H162.39a6,6,0,0,1-5.24-3.08l-.28-.58h0l-27.36-55.33,20.07-40.62Z"/><path class="cls-1" d="M160.35,38.71a6,6,0,0,1-.73,2.86L146.21,68.71,95.64,171a6,6,0,0,1-5.27,3.14H53.93L106.06,68.71H41.18L57.42,35.85a6,6,0,0,1,5.27-3.14h91.66A6,6,0,0,1,160.35,38.71Z"/></g></svg>